<?xml version="1.0" encoding="utf-8" standalone="no"?>
<!DOCTYPE svg PUBLIC "-//W3C//DTD SVG 1.1//EN"
  "http://www.w3.org/Graphics/SVG/1.1/DTD/svg11.dtd">
<svg xmlns:xlink="http://www.w3.org/1999/xlink" width="460.8pt" height="345.6pt" viewBox="0 0 460.8 345.6" xmlns="http://www.w3.org/2000/svg" version="1.1">
 <metadata>
  <rdf:RDF xmlns:dc="http://purl.org/dc/elements/1.1/" xmlns:cc="http://creativecommons.org/ns#" xmlns:rdf="http://www.w3.org/1999/02/22-rdf-syntax-ns#">
   <cc:Work>
    <dc:type rdf:resource="http://purl.org/dc/dcmitype/StillImage"/>
    <dc:date>2023-04-22T12:03:52.610384</dc:date>
    <dc:format>image/svg+xml</dc:format>
    <dc:creator>
     <cc:Agent>
      <dc:title>Matplotlib v3.7.1, https://matplotlib.org/</dc:title>
     </cc:Agent>
    </dc:creator>
   </cc:Work>
  </rdf:RDF>
 </metadata>
 <defs>
  <style type="text/css">*{stroke-linejoin: round; stroke-linecap: butt}</style>
 </defs>
 <g id="figure_1">
  <g id="patch_1">
   <path d="M 0 345.6 
L 460.8 345.6 
L 460.8 0 
L 0 0 
z
" style="fill: #ffffff"/>
  </g>
  <g id="axes_1">
   <g id="patch_2">
    <path d="M 342.6048 174.528 
C 342.6048 163.669743 340.943351 152.875135 337.67821 142.519431 
C 334.413069 132.163727 329.582515 122.368333 323.354475 113.47377 
C 317.126434 104.579207 309.573922 96.689749 300.959487 90.079661 
C 292.345053 83.469573 282.769688 78.216349 272.566264 74.502606 
C 262.362839 70.788864 251.650977 68.658142 240.803054 68.184512 
C 229.955132 67.710882 219.098326 68.899895 208.610055 71.710219 
C 198.121784 74.520544 188.125008 78.919231 178.967247 84.753368 
C 169.809486 90.587506 161.598102 97.788697 154.61855 106.106605 
C 147.638997 114.424513 141.973101 123.761621 137.817826 133.793343 
C 133.662551 143.825065 131.066613 154.433792 130.120254 165.25073 
C 129.173895 176.067668 129.888211 186.966004 132.238368 197.566877 
C 134.588526 208.16775 138.546973 218.34688 143.976102 227.750406 
C 149.405232 237.153932 156.241393 245.671612 164.246941 253.007344 
C 172.252488 260.343075 181.333567 266.410857 191.174491 270.999754 
C 201.015414 275.588651 211.50081 278.644865 222.266174 280.062151 
C 233.031537 281.479437 243.950659 281.24118 254.643954 279.355663 
L 236.16 174.528 
z
" style="fill: #90ee90"/>
   </g>
   <g id="patch_3">
    <path d="M 254.643954 279.355663 
C 266.872085 277.199512 278.62917 272.920282 289.382408 266.711896 
C 300.135646 260.50351 309.720109 252.46119 317.701454 242.949391 
L 236.16 174.528 
z
" style="fill: #ffff00"/>
   </g>
   <g id="patch_4">
    <path d="M 317.701454 242.949391 
C 325.682799 233.437593 331.938612 222.602204 336.185396 210.934257 
C 340.432181 199.266309 342.604801 186.94476 342.6048 174.52799 
L 236.16 174.528 
z
" style="fill: #ffa500"/>
   </g>
   <g id="matplotlib.axis_1"/>
   <g id="matplotlib.axis_2"/>
   <g id="text_1">
    <!-- A:7 -->
    <g transform="translate(130.06753 102.02384) scale(0.1 -0.1)">
     <defs>
      <path id="DejaVuSans-41" d="M 2188 4044 
L 1331 1722 
L 3047 1722 
L 2188 4044 
z
M 1831 4666 
L 2547 4666 
L 4325 0 
L 3669 0 
L 3244 1197 
L 1141 1197 
L 716 0 
L 50 0 
L 1831 4666 
z
" transform="scale(0.015625)"/>
      <path id="DejaVuSans-3a" d="M 750 794 
L 1409 794 
L 1409 0 
L 750 0 
L 750 794 
z
M 750 3309 
L 1409 3309 
L 1409 2516 
L 750 2516 
L 750 3309 
z
" transform="scale(0.015625)"/>
      <path id="DejaVuSans-37" d="M 525 4666 
L 3525 4666 
L 3525 4397 
L 1831 0 
L 1172 0 
L 2766 4134 
L 525 4134 
L 525 4666 
z
" transform="scale(0.015625)"/>
     </defs>
     <use xlink:href="#DejaVuSans-41"/>
     <use xlink:href="#DejaVuSans-3a" x="66.658203"/>
     <use xlink:href="#DejaVuSans-37" x="100.349609"/>
    </g>
   </g>
   <g id="text_2">
    <!-- B:1 -->
    <g transform="translate(294.704649 278.689661) scale(0.1 -0.1)">
     <defs>
      <path id="DejaVuSans-42" d="M 1259 2228 
L 1259 519 
L 2272 519 
Q 2781 519 3026 730 
Q 3272 941 3272 1375 
Q 3272 1813 3026 2020 
Q 2781 2228 2272 2228 
L 1259 2228 
z
M 1259 4147 
L 1259 2741 
L 2194 2741 
Q 2656 2741 2882 2914 
Q 3109 3088 3109 3444 
Q 3109 3797 2882 3972 
Q 2656 4147 2194 4147 
L 1259 4147 
z
M 628 4666 
L 2241 4666 
Q 2963 4666 3353 4366 
Q 3744 4066 3744 3513 
Q 3744 3084 3544 2831 
Q 3344 2578 2956 2516 
Q 3422 2416 3680 2098 
Q 3938 1781 3938 1306 
Q 3938 681 3513 340 
Q 3088 0 2303 0 
L 628 0 
L 628 4666 
z
" transform="scale(0.015625)"/>
      <path id="DejaVuSans-31" d="M 794 531 
L 1825 531 
L 1825 4091 
L 703 3866 
L 703 4441 
L 1819 4666 
L 2450 4666 
L 2450 531 
L 3481 531 
L 3481 0 
L 794 0 
L 794 531 
z
" transform="scale(0.015625)"/>
     </defs>
     <use xlink:href="#DejaVuSans-42"/>
     <use xlink:href="#DejaVuSans-3a" x="68.603516"/>
     <use xlink:href="#DejaVuSans-31" x="102.294922"/>
    </g>
   </g>
   <g id="text_3">
    <!-- D:1 -->
    <g transform="translate(346.187936 217.334257) scale(0.1 -0.1)">
     <defs>
      <path id="DejaVuSans-44" d="M 1259 4147 
L 1259 519 
L 2022 519 
Q 2988 519 3436 956 
Q 3884 1394 3884 2338 
Q 3884 3275 3436 3711 
Q 2988 4147 2022 4147 
L 1259 4147 
z
M 628 4666 
L 1925 4666 
Q 3281 4666 3915 4102 
Q 4550 3538 4550 2338 
Q 4550 1131 3912 565 
Q 3275 0 1925 0 
L 628 0 
L 628 4666 
z
" transform="scale(0.015625)"/>
     </defs>
     <use xlink:href="#DejaVuSans-44"/>
     <use xlink:href="#DejaVuSans-3a" x="77.001953"/>
     <use xlink:href="#DejaVuSans-31" x="110.693359"/>
    </g>
   </g>
   <g id="text_4">
    <!-- main -->
    <g transform="translate(221.169375 35.472) scale(0.12 -0.12)">
     <defs>
      <path id="DejaVuSans-6d" d="M 3328 2828 
Q 3544 3216 3844 3400 
Q 4144 3584 4550 3584 
Q 5097 3584 5394 3201 
Q 5691 2819 5691 2113 
L 5691 0 
L 5113 0 
L 5113 2094 
Q 5113 2597 4934 2840 
Q 4756 3084 4391 3084 
Q 3944 3084 3684 2787 
Q 3425 2491 3425 1978 
L 3425 0 
L 2847 0 
L 2847 2094 
Q 2847 2600 2669 2842 
Q 2491 3084 2119 3084 
Q 1678 3084 1418 2786 
Q 1159 2488 1159 1978 
L 1159 0 
L 581 0 
L 581 3500 
L 1159 3500 
L 1159 2956 
Q 1356 3278 1631 3431 
Q 1906 3584 2284 3584 
Q 2666 3584 2933 3390 
Q 3200 3197 3328 2828 
z
" transform="scale(0.015625)"/>
      <path id="DejaVuSans-61" d="M 2194 1759 
Q 1497 1759 1228 1600 
Q 959 1441 959 1056 
Q 959 750 1161 570 
Q 1363 391 1709 391 
Q 2188 391 2477 730 
Q 2766 1069 2766 1631 
L 2766 1759 
L 2194 1759 
z
M 3341 1997 
L 3341 0 
L 2766 0 
L 2766 531 
Q 2569 213 2275 61 
Q 1981 -91 1556 -91 
Q 1019 -91 701 211 
Q 384 513 384 1019 
Q 384 1609 779 1909 
Q 1175 2209 1959 2209 
L 2766 2209 
L 2766 2266 
Q 2766 2663 2505 2880 
Q 2244 3097 1772 3097 
Q 1472 3097 1187 3025 
Q 903 2953 641 2809 
L 641 3341 
Q 956 3463 1253 3523 
Q 1550 3584 1831 3584 
Q 2591 3584 2966 3190 
Q 3341 2797 3341 1997 
z
" transform="scale(0.015625)"/>
      <path id="DejaVuSans-69" d="M 603 3500 
L 1178 3500 
L 1178 0 
L 603 0 
L 603 3500 
z
M 603 4863 
L 1178 4863 
L 1178 4134 
L 603 4134 
L 603 4863 
z
" transform="scale(0.015625)"/>
      <path id="DejaVuSans-6e" d="M 3513 2113 
L 3513 0 
L 2938 0 
L 2938 2094 
Q 2938 2591 2744 2837 
Q 2550 3084 2163 3084 
Q 1697 3084 1428 2787 
Q 1159 2491 1159 1978 
L 1159 0 
L 581 0 
L 581 3500 
L 1159 3500 
L 1159 2956 
Q 1366 3272 1645 3428 
Q 1925 3584 2291 3584 
Q 2894 3584 3203 3211 
Q 3513 2838 3513 2113 
z
" transform="scale(0.015625)"/>
     </defs>
     <use xlink:href="#DejaVuSans-6d"/>
     <use xlink:href="#DejaVuSans-61" x="97.412109"/>
     <use xlink:href="#DejaVuSans-69" x="158.691406"/>
     <use xlink:href="#DejaVuSans-6e" x="186.474609"/>
    </g>
   </g>
   <g id="legend_1">
    <g id="patch_5">
     <path d="M 312.78475 93.506375 
L 362.216 93.506375 
Q 364.216 93.506375 364.216 91.506375 
L 364.216 48.472 
Q 364.216 46.472 362.216 46.472 
L 312.78475 46.472 
Q 310.78475 46.472 310.78475 48.472 
L 310.78475 91.506375 
Q 310.78475 93.506375 312.78475 93.506375 
z
" style="fill: #ffffff; opacity: 0.8; stroke: #cccccc; stroke-linejoin: miter"/>
    </g>
    <g id="patch_6">
     <path d="M 314.78475 58.070438 
L 334.78475 58.070438 
L 334.78475 51.070438 
L 314.78475 51.070438 
z
" style="fill: #90ee90"/>
    </g>
    <g id="text_5">
     <!-- A:7 -->
     <g transform="translate(342.78475 58.070438) scale(0.1 -0.1)">
      <use xlink:href="#DejaVuSans-41"/>
      <use xlink:href="#DejaVuSans-3a" x="66.658203"/>
      <use xlink:href="#DejaVuSans-37" x="100.349609"/>
     </g>
    </g>
    <g id="patch_7">
     <path d="M 314.78475 72.748563 
L 334.78475 72.748563 
L 334.78475 65.748563 
L 314.78475 65.748563 
z
" style="fill: #ffff00"/>
    </g>
    <g id="text_6">
     <!-- B:1 -->
     <g transform="translate(342.78475 72.748563) scale(0.1 -0.1)">
      <use xlink:href="#DejaVuSans-42"/>
      <use xlink:href="#DejaVuSans-3a" x="68.603516"/>
      <use xlink:href="#DejaVuSans-31" x="102.294922"/>
     </g>
    </g>
    <g id="patch_8">
     <path d="M 314.78475 87.426688 
L 334.78475 87.426688 
L 334.78475 80.426688 
L 314.78475 80.426688 
z
" style="fill: #ffa500"/>
    </g>
    <g id="text_7">
     <!-- D:1 -->
     <g transform="translate(342.78475 87.426688) scale(0.1 -0.1)">
      <use xlink:href="#DejaVuSans-44"/>
      <use xlink:href="#DejaVuSans-3a" x="77.001953"/>
      <use xlink:href="#DejaVuSans-31" x="110.693359"/>
     </g>
    </g>
   </g>
  </g>
 </g>
</svg>
