<?xml version="1.0" encoding="utf-8" standalone="no"?>
<!DOCTYPE svg PUBLIC "-//W3C//DTD SVG 1.1//EN"
  "http://www.w3.org/Graphics/SVG/1.1/DTD/svg11.dtd">
<svg xmlns:xlink="http://www.w3.org/1999/xlink" width="460.8pt" height="345.6pt" viewBox="0 0 460.8 345.6" xmlns="http://www.w3.org/2000/svg" version="1.1">
 <metadata>
  <rdf:RDF xmlns:dc="http://purl.org/dc/elements/1.1/" xmlns:cc="http://creativecommons.org/ns#" xmlns:rdf="http://www.w3.org/1999/02/22-rdf-syntax-ns#">
   <cc:Work>
    <dc:type rdf:resource="http://purl.org/dc/dcmitype/StillImage"/>
    <dc:date>2023-04-22T15:12:29.477661</dc:date>
    <dc:format>image/svg+xml</dc:format>
    <dc:creator>
     <cc:Agent>
      <dc:title>Matplotlib v3.7.1, https://matplotlib.org/</dc:title>
     </cc:Agent>
    </dc:creator>
   </cc:Work>
  </rdf:RDF>
 </metadata>
 <defs>
  <style type="text/css">*{stroke-linejoin: round; stroke-linecap: butt}</style>
 </defs>
 <g id="figure_1">
  <g id="patch_1">
   <path d="M 0 345.6 
L 460.8 345.6 
L 460.8 0 
L 0 0 
z
" style="fill: #ffffff"/>
  </g>
  <g id="axes_1">
   <g id="patch_2">
    <path d="M 342.6048 174.528 
C 342.6048 162.890829 340.696434 151.332029 336.955789 140.312441 
C 333.215143 129.292854 327.692599 118.960901 320.608339 109.728513 
C 313.524078 100.496125 304.973518 92.487651 295.297564 86.022385 
C 285.621611 79.557119 274.950588 74.722141 263.709945 71.710219 
C 252.469301 68.698298 240.810436 67.549999 229.198181 68.311106 
C 217.585927 69.072213 206.176687 71.732474 195.425343 76.185826 
C 184.673999 80.639178 174.725359 86.825639 165.976071 94.498558 
C 157.226783 102.171477 149.794688 111.227509 143.976102 121.305594 
C 138.157517 131.383679 134.030809 142.348077 131.760508 153.761642 
C 129.490208 165.175208 129.106894 176.884213 130.625849 188.421826 
C 132.144804 199.959439 135.545568 211.170262 140.692556 221.607323 
C 145.839544 232.044384 152.663432 241.56711 160.892153 249.795833 
C 169.120874 258.024556 178.643599 264.848445 189.080659 269.995435 
C 199.51772 275.142425 210.728541 278.543192 222.266154 280.062148 
C 233.803767 281.581105 245.512772 281.197793 256.926338 278.927495 
C 268.339904 276.657197 279.304302 272.530492 289.382388 266.711908 
L 236.16 174.528 
z
" style="fill: #90ee90"/>
   </g>
   <g id="patch_3">
    <path d="M 289.382388 266.711908 
C 303.230677 258.716597 315.100973 247.702574 324.108815 234.4905 
C 333.116656 221.278426 339.032618 206.204806 341.415898 190.392783 
L 236.16 174.528 
z
" style="fill: #ffff00"/>
   </g>
   <g id="patch_4">
    <path d="M 341.415898 190.392783 
C 341.811505 187.768103 342.1088 185.129544 342.307158 182.482639 
C 342.505516 179.835734 342.6048 177.182336 342.6048 174.528009 
L 236.16 174.528 
z
" style="fill: #ffa500"/>
   </g>
   <g id="matplotlib.axis_1"/>
   <g id="matplotlib.axis_2"/>
   <g id="text_1">
    <!-- A:70 -->
    <g transform="translate(111.998338 118.742729) scale(0.1 -0.1)">
     <defs>
      <path id="DejaVuSans-41" d="M 2188 4044 
L 1331 1722 
L 3047 1722 
L 2188 4044 
z
M 1831 4666 
L 2547 4666 
L 4325 0 
L 3669 0 
L 3244 1197 
L 1141 1197 
L 716 0 
L 50 0 
L 1831 4666 
z
" transform="scale(0.015625)"/>
      <path id="DejaVuSans-3a" d="M 750 794 
L 1409 794 
L 1409 0 
L 750 0 
L 750 794 
z
M 750 3309 
L 1409 3309 
L 1409 2516 
L 750 2516 
L 750 3309 
z
" transform="scale(0.015625)"/>
      <path id="DejaVuSans-37" d="M 525 4666 
L 3525 4666 
L 3525 4397 
L 1831 0 
L 1172 0 
L 2766 4134 
L 525 4134 
L 525 4666 
z
" transform="scale(0.015625)"/>
      <path id="DejaVuSans-30" d="M 2034 4250 
Q 1547 4250 1301 3770 
Q 1056 3291 1056 2328 
Q 1056 1369 1301 889 
Q 1547 409 2034 409 
Q 2525 409 2770 889 
Q 3016 1369 3016 2328 
Q 3016 3291 2770 3770 
Q 2525 4250 2034 4250 
z
M 2034 4750 
Q 2819 4750 3233 4129 
Q 3647 3509 3647 2328 
Q 3647 1150 3233 529 
Q 2819 -91 2034 -91 
Q 1250 -91 836 529 
Q 422 1150 422 2328 
Q 422 3509 836 4129 
Q 1250 4750 2034 4750 
z
" transform="scale(0.015625)"/>
     </defs>
     <use xlink:href="#DejaVuSans-41"/>
     <use xlink:href="#DejaVuSans-3a" x="66.658203"/>
     <use xlink:href="#DejaVuSans-37" x="100.349609"/>
     <use xlink:href="#DejaVuSans-30" x="163.972656"/>
    </g>
   </g>
   <g id="text_2">
    <!-- B:12 -->
    <g transform="translate(332.903696 243.246125) scale(0.1 -0.1)">
     <defs>
      <path id="DejaVuSans-42" d="M 1259 2228 
L 1259 519 
L 2272 519 
Q 2781 519 3026 730 
Q 3272 941 3272 1375 
Q 3272 1813 3026 2020 
Q 2781 2228 2272 2228 
L 1259 2228 
z
M 1259 4147 
L 1259 2741 
L 2194 2741 
Q 2656 2741 2882 2914 
Q 3109 3088 3109 3444 
Q 3109 3797 2882 3972 
Q 2656 4147 2194 4147 
L 1259 4147 
z
M 628 4666 
L 2241 4666 
Q 2963 4666 3353 4366 
Q 3744 4066 3744 3513 
Q 3744 3084 3544 2831 
Q 3344 2578 2956 2516 
Q 3422 2416 3680 2098 
Q 3938 1781 3938 1306 
Q 3938 681 3513 340 
Q 3088 0 2303 0 
L 628 0 
L 628 4666 
z
" transform="scale(0.015625)"/>
      <path id="DejaVuSans-31" d="M 794 531 
L 1825 531 
L 1825 4091 
L 703 3866 
L 703 4441 
L 1819 4666 
L 2450 4666 
L 2450 531 
L 3481 531 
L 3481 0 
L 794 0 
L 794 531 
z
" transform="scale(0.015625)"/>
      <path id="DejaVuSans-32" d="M 1228 531 
L 3431 531 
L 3431 0 
L 469 0 
L 469 531 
Q 828 903 1448 1529 
Q 2069 2156 2228 2338 
Q 2531 2678 2651 2914 
Q 2772 3150 2772 3378 
Q 2772 3750 2511 3984 
Q 2250 4219 1831 4219 
Q 1534 4219 1204 4116 
Q 875 4013 500 3803 
L 500 4441 
Q 881 4594 1212 4672 
Q 1544 4750 1819 4750 
Q 2544 4750 2975 4387 
Q 3406 4025 3406 3419 
Q 3406 3131 3298 2873 
Q 3191 2616 2906 2266 
Q 2828 2175 2409 1742 
Q 1991 1309 1228 531 
z
" transform="scale(0.015625)"/>
     </defs>
     <use xlink:href="#DejaVuSans-42"/>
     <use xlink:href="#DejaVuSans-3a" x="68.603516"/>
     <use xlink:href="#DejaVuSans-31" x="102.294922"/>
     <use xlink:href="#DejaVuSans-32" x="165.917969"/>
    </g>
   </g>
   <g id="text_3">
    <!-- C:2 -->
    <g transform="translate(352.921874 186.037478) scale(0.1 -0.1)">
     <defs>
      <path id="DejaVuSans-43" d="M 4122 4306 
L 4122 3641 
Q 3803 3938 3442 4084 
Q 3081 4231 2675 4231 
Q 1875 4231 1450 3742 
Q 1025 3253 1025 2328 
Q 1025 1406 1450 917 
Q 1875 428 2675 428 
Q 3081 428 3442 575 
Q 3803 722 4122 1019 
L 4122 359 
Q 3791 134 3420 21 
Q 3050 -91 2638 -91 
Q 1578 -91 968 557 
Q 359 1206 359 2328 
Q 359 3453 968 4101 
Q 1578 4750 2638 4750 
Q 3056 4750 3426 4639 
Q 3797 4528 4122 4306 
z
" transform="scale(0.015625)"/>
     </defs>
     <use xlink:href="#DejaVuSans-43"/>
     <use xlink:href="#DejaVuSans-3a" x="69.824219"/>
     <use xlink:href="#DejaVuSans-32" x="103.515625"/>
    </g>
   </g>
   <g id="text_4">
    <!-- summed_deeper_levels -->
    <g transform="translate(165.4875 35.472) scale(0.12 -0.12)">
     <defs>
      <path id="DejaVuSans-73" d="M 2834 3397 
L 2834 2853 
Q 2591 2978 2328 3040 
Q 2066 3103 1784 3103 
Q 1356 3103 1142 2972 
Q 928 2841 928 2578 
Q 928 2378 1081 2264 
Q 1234 2150 1697 2047 
L 1894 2003 
Q 2506 1872 2764 1633 
Q 3022 1394 3022 966 
Q 3022 478 2636 193 
Q 2250 -91 1575 -91 
Q 1294 -91 989 -36 
Q 684 19 347 128 
L 347 722 
Q 666 556 975 473 
Q 1284 391 1588 391 
Q 1994 391 2212 530 
Q 2431 669 2431 922 
Q 2431 1156 2273 1281 
Q 2116 1406 1581 1522 
L 1381 1569 
Q 847 1681 609 1914 
Q 372 2147 372 2553 
Q 372 3047 722 3315 
Q 1072 3584 1716 3584 
Q 2034 3584 2315 3537 
Q 2597 3491 2834 3397 
z
" transform="scale(0.015625)"/>
      <path id="DejaVuSans-75" d="M 544 1381 
L 544 3500 
L 1119 3500 
L 1119 1403 
Q 1119 906 1312 657 
Q 1506 409 1894 409 
Q 2359 409 2629 706 
Q 2900 1003 2900 1516 
L 2900 3500 
L 3475 3500 
L 3475 0 
L 2900 0 
L 2900 538 
Q 2691 219 2414 64 
Q 2138 -91 1772 -91 
Q 1169 -91 856 284 
Q 544 659 544 1381 
z
M 1991 3584 
L 1991 3584 
z
" transform="scale(0.015625)"/>
      <path id="DejaVuSans-6d" d="M 3328 2828 
Q 3544 3216 3844 3400 
Q 4144 3584 4550 3584 
Q 5097 3584 5394 3201 
Q 5691 2819 5691 2113 
L 5691 0 
L 5113 0 
L 5113 2094 
Q 5113 2597 4934 2840 
Q 4756 3084 4391 3084 
Q 3944 3084 3684 2787 
Q 3425 2491 3425 1978 
L 3425 0 
L 2847 0 
L 2847 2094 
Q 2847 2600 2669 2842 
Q 2491 3084 2119 3084 
Q 1678 3084 1418 2786 
Q 1159 2488 1159 1978 
L 1159 0 
L 581 0 
L 581 3500 
L 1159 3500 
L 1159 2956 
Q 1356 3278 1631 3431 
Q 1906 3584 2284 3584 
Q 2666 3584 2933 3390 
Q 3200 3197 3328 2828 
z
" transform="scale(0.015625)"/>
      <path id="DejaVuSans-65" d="M 3597 1894 
L 3597 1613 
L 953 1613 
Q 991 1019 1311 708 
Q 1631 397 2203 397 
Q 2534 397 2845 478 
Q 3156 559 3463 722 
L 3463 178 
Q 3153 47 2828 -22 
Q 2503 -91 2169 -91 
Q 1331 -91 842 396 
Q 353 884 353 1716 
Q 353 2575 817 3079 
Q 1281 3584 2069 3584 
Q 2775 3584 3186 3129 
Q 3597 2675 3597 1894 
z
M 3022 2063 
Q 3016 2534 2758 2815 
Q 2500 3097 2075 3097 
Q 1594 3097 1305 2825 
Q 1016 2553 972 2059 
L 3022 2063 
z
" transform="scale(0.015625)"/>
      <path id="DejaVuSans-64" d="M 2906 2969 
L 2906 4863 
L 3481 4863 
L 3481 0 
L 2906 0 
L 2906 525 
Q 2725 213 2448 61 
Q 2172 -91 1784 -91 
Q 1150 -91 751 415 
Q 353 922 353 1747 
Q 353 2572 751 3078 
Q 1150 3584 1784 3584 
Q 2172 3584 2448 3432 
Q 2725 3281 2906 2969 
z
M 947 1747 
Q 947 1113 1208 752 
Q 1469 391 1925 391 
Q 2381 391 2643 752 
Q 2906 1113 2906 1747 
Q 2906 2381 2643 2742 
Q 2381 3103 1925 3103 
Q 1469 3103 1208 2742 
Q 947 2381 947 1747 
z
" transform="scale(0.015625)"/>
      <path id="DejaVuSans-5f" d="M 3263 -1063 
L 3263 -1509 
L -63 -1509 
L -63 -1063 
L 3263 -1063 
z
" transform="scale(0.015625)"/>
      <path id="DejaVuSans-70" d="M 1159 525 
L 1159 -1331 
L 581 -1331 
L 581 3500 
L 1159 3500 
L 1159 2969 
Q 1341 3281 1617 3432 
Q 1894 3584 2278 3584 
Q 2916 3584 3314 3078 
Q 3713 2572 3713 1747 
Q 3713 922 3314 415 
Q 2916 -91 2278 -91 
Q 1894 -91 1617 61 
Q 1341 213 1159 525 
z
M 3116 1747 
Q 3116 2381 2855 2742 
Q 2594 3103 2138 3103 
Q 1681 3103 1420 2742 
Q 1159 2381 1159 1747 
Q 1159 1113 1420 752 
Q 1681 391 2138 391 
Q 2594 391 2855 752 
Q 3116 1113 3116 1747 
z
" transform="scale(0.015625)"/>
      <path id="DejaVuSans-72" d="M 2631 2963 
Q 2534 3019 2420 3045 
Q 2306 3072 2169 3072 
Q 1681 3072 1420 2755 
Q 1159 2438 1159 1844 
L 1159 0 
L 581 0 
L 581 3500 
L 1159 3500 
L 1159 2956 
Q 1341 3275 1631 3429 
Q 1922 3584 2338 3584 
Q 2397 3584 2469 3576 
Q 2541 3569 2628 3553 
L 2631 2963 
z
" transform="scale(0.015625)"/>
      <path id="DejaVuSans-6c" d="M 603 4863 
L 1178 4863 
L 1178 0 
L 603 0 
L 603 4863 
z
" transform="scale(0.015625)"/>
      <path id="DejaVuSans-76" d="M 191 3500 
L 800 3500 
L 1894 563 
L 2988 3500 
L 3597 3500 
L 2284 0 
L 1503 0 
L 191 3500 
z
" transform="scale(0.015625)"/>
     </defs>
     <use xlink:href="#DejaVuSans-73"/>
     <use xlink:href="#DejaVuSans-75" x="52.099609"/>
     <use xlink:href="#DejaVuSans-6d" x="115.478516"/>
     <use xlink:href="#DejaVuSans-6d" x="212.890625"/>
     <use xlink:href="#DejaVuSans-65" x="310.302734"/>
     <use xlink:href="#DejaVuSans-64" x="371.826172"/>
     <use xlink:href="#DejaVuSans-5f" x="435.302734"/>
     <use xlink:href="#DejaVuSans-64" x="485.302734"/>
     <use xlink:href="#DejaVuSans-65" x="548.779297"/>
     <use xlink:href="#DejaVuSans-65" x="610.302734"/>
     <use xlink:href="#DejaVuSans-70" x="671.826172"/>
     <use xlink:href="#DejaVuSans-65" x="735.302734"/>
     <use xlink:href="#DejaVuSans-72" x="796.826172"/>
     <use xlink:href="#DejaVuSans-5f" x="837.939453"/>
     <use xlink:href="#DejaVuSans-6c" x="887.939453"/>
     <use xlink:href="#DejaVuSans-65" x="915.722656"/>
     <use xlink:href="#DejaVuSans-76" x="977.246094"/>
     <use xlink:href="#DejaVuSans-65" x="1036.425781"/>
     <use xlink:href="#DejaVuSans-6c" x="1097.949219"/>
     <use xlink:href="#DejaVuSans-73" x="1125.732422"/>
    </g>
   </g>
   <g id="legend_1">
    <g id="patch_5">
     <path d="M 307.261312 93.506375 
L 362.216 93.506375 
Q 364.216 93.506375 364.216 91.506375 
L 364.216 48.472 
Q 364.216 46.472 362.216 46.472 
L 307.261312 46.472 
Q 305.261312 46.472 305.261312 48.472 
L 305.261312 91.506375 
Q 305.261312 93.506375 307.261312 93.506375 
z
" style="fill: #ffffff; opacity: 0.8; stroke: #cccccc; stroke-linejoin: miter"/>
    </g>
    <g id="patch_6">
     <path d="M 309.261312 58.070438 
L 329.261312 58.070438 
L 329.261312 51.070438 
L 309.261312 51.070438 
z
" style="fill: #90ee90"/>
    </g>
    <g id="text_5">
     <!-- A:70 -->
     <g transform="translate(337.261312 58.070438) scale(0.1 -0.1)">
      <use xlink:href="#DejaVuSans-41"/>
      <use xlink:href="#DejaVuSans-3a" x="66.658203"/>
      <use xlink:href="#DejaVuSans-37" x="100.349609"/>
      <use xlink:href="#DejaVuSans-30" x="163.972656"/>
     </g>
    </g>
    <g id="patch_7">
     <path d="M 309.261312 72.748563 
L 329.261312 72.748563 
L 329.261312 65.748563 
L 309.261312 65.748563 
z
" style="fill: #ffff00"/>
    </g>
    <g id="text_6">
     <!-- B:12 -->
     <g transform="translate(337.261312 72.748563) scale(0.1 -0.1)">
      <use xlink:href="#DejaVuSans-42"/>
      <use xlink:href="#DejaVuSans-3a" x="68.603516"/>
      <use xlink:href="#DejaVuSans-31" x="102.294922"/>
      <use xlink:href="#DejaVuSans-32" x="165.917969"/>
     </g>
    </g>
    <g id="patch_8">
     <path d="M 309.261312 87.426688 
L 329.261312 87.426688 
L 329.261312 80.426688 
L 309.261312 80.426688 
z
" style="fill: #ffa500"/>
    </g>
    <g id="text_7">
     <!-- C:2 -->
     <g transform="translate(337.261312 87.426688) scale(0.1 -0.1)">
      <use xlink:href="#DejaVuSans-43"/>
      <use xlink:href="#DejaVuSans-3a" x="69.824219"/>
      <use xlink:href="#DejaVuSans-32" x="103.515625"/>
     </g>
    </g>
   </g>
  </g>
 </g>
</svg>
