<?xml version="1.0" encoding="utf-8" standalone="no"?>
<!DOCTYPE svg PUBLIC "-//W3C//DTD SVG 1.1//EN"
  "http://www.w3.org/Graphics/SVG/1.1/DTD/svg11.dtd">
<svg xmlns:xlink="http://www.w3.org/1999/xlink" width="460.8pt" height="345.6pt" viewBox="0 0 460.8 345.6" xmlns="http://www.w3.org/2000/svg" version="1.1">
 <metadata>
  <rdf:RDF xmlns:dc="http://purl.org/dc/elements/1.1/" xmlns:cc="http://creativecommons.org/ns#" xmlns:rdf="http://www.w3.org/1999/02/22-rdf-syntax-ns#">
   <cc:Work>
    <dc:type rdf:resource="http://purl.org/dc/dcmitype/StillImage"/>
    <dc:date>2023-04-22T15:12:29.269591</dc:date>
    <dc:format>image/svg+xml</dc:format>
    <dc:creator>
     <cc:Agent>
      <dc:title>Matplotlib v3.7.1, https://matplotlib.org/</dc:title>
     </cc:Agent>
    </dc:creator>
   </cc:Work>
  </rdf:RDF>
 </metadata>
 <defs>
  <style type="text/css">*{stroke-linejoin: round; stroke-linecap: butt}</style>
 </defs>
 <g id="figure_1">
  <g id="patch_1">
   <path d="M 0 345.6 
L 460.8 345.6 
L 460.8 0 
L 0 0 
z
" style="fill: #ffffff"/>
  </g>
  <g id="axes_1">
   <g id="patch_2">
    <path d="M 342.6048 174.528 
C 342.6048 161.252826 340.121397 148.094051 335.282988 135.732011 
C 330.444579 123.369971 323.336011 112.02145 314.324813 102.273191 
C 305.313616 92.524932 294.55781 84.547883 282.613496 78.754475 
C 270.669181 72.961066 257.745816 69.452892 244.511565 68.411334 
C 231.277314 67.369776 217.964257 68.813097 205.260708 72.666677 
C 192.557159 76.520256 180.68589 82.716515 170.260671 90.935095 
C 159.835452 99.153674 151.039102 109.25045 144.326413 120.703399 
C 137.613723 132.156348 133.102408 144.764626 131.025713 157.876361 
C 128.949018 170.988095 129.343359 184.373354 132.18835 197.340091 
C 135.033341 210.306827 140.27909 222.627654 147.654381 233.665558 
C 155.029671 244.703462 164.405169 254.264879 175.29614 261.855464 
C 186.187112 269.44605 198.40257 274.932692 211.310949 278.03172 
C 224.219329 281.130749 237.594265 281.787818 250.744245 279.968956 
C 263.894225 278.150094 276.588648 273.887197 288.171184 267.400666 
C 299.753721 260.914135 310.021257 252.317719 318.442938 242.055872 
C 326.86462 231.794025 333.292763 220.0467 337.395018 207.42126 
L 236.16 174.528 
z
" style="fill: #90ee90"/>
   </g>
   <g id="patch_3">
    <path d="M 337.395018 207.42126 
C 339.11819 202.117883 340.421961 196.68729 341.294287 191.179643 
C 342.166613 185.671996 342.6048 180.104308 342.6048 174.528007 
L 236.16 174.528 
z
" style="fill: #ffff00"/>
   </g>
   <g id="matplotlib.axis_1"/>
   <g id="matplotlib.axis_2"/>
   <g id="text_1">
    <!-- A:19 -->
    <g transform="translate(97.752909 158.970572) scale(0.1 -0.1)">
     <defs>
      <path id="DejaVuSans-41" d="M 2188 4044 
L 1331 1722 
L 3047 1722 
L 2188 4044 
z
M 1831 4666 
L 2547 4666 
L 4325 0 
L 3669 0 
L 3244 1197 
L 1141 1197 
L 716 0 
L 50 0 
L 1831 4666 
z
" transform="scale(0.015625)"/>
      <path id="DejaVuSans-3a" d="M 750 794 
L 1409 794 
L 1409 0 
L 750 0 
L 750 794 
z
M 750 3309 
L 1409 3309 
L 1409 2516 
L 750 2516 
L 750 3309 
z
" transform="scale(0.015625)"/>
      <path id="DejaVuSans-31" d="M 794 531 
L 1825 531 
L 1825 4091 
L 703 3866 
L 703 4441 
L 1819 4666 
L 2450 4666 
L 2450 531 
L 3481 531 
L 3481 0 
L 794 0 
L 794 531 
z
" transform="scale(0.015625)"/>
      <path id="DejaVuSans-39" d="M 703 97 
L 703 672 
Q 941 559 1184 500 
Q 1428 441 1663 441 
Q 2288 441 2617 861 
Q 2947 1281 2994 2138 
Q 2813 1869 2534 1725 
Q 2256 1581 1919 1581 
Q 1219 1581 811 2004 
Q 403 2428 403 3163 
Q 403 3881 828 4315 
Q 1253 4750 1959 4750 
Q 2769 4750 3195 4129 
Q 3622 3509 3622 2328 
Q 3622 1225 3098 567 
Q 2575 -91 1691 -91 
Q 1453 -91 1209 -44 
Q 966 3 703 97 
z
M 1959 2075 
Q 2384 2075 2632 2365 
Q 2881 2656 2881 3163 
Q 2881 3666 2632 3958 
Q 2384 4250 1959 4250 
Q 1534 4250 1286 3958 
Q 1038 3666 1038 3163 
Q 1038 2656 1286 2365 
Q 1534 2075 1959 2075 
z
" transform="scale(0.015625)"/>
     </defs>
     <use xlink:href="#DejaVuSans-41"/>
     <use xlink:href="#DejaVuSans-3a" x="66.658203"/>
     <use xlink:href="#DejaVuSans-31" x="100.349609"/>
     <use xlink:href="#DejaVuSans-39" x="163.972656"/>
    </g>
   </g>
   <g id="text_2">
    <!-- B:1 -->
    <g transform="translate(351.807715 195.604182) scale(0.1 -0.1)">
     <defs>
      <path id="DejaVuSans-42" d="M 1259 2228 
L 1259 519 
L 2272 519 
Q 2781 519 3026 730 
Q 3272 941 3272 1375 
Q 3272 1813 3026 2020 
Q 2781 2228 2272 2228 
L 1259 2228 
z
M 1259 4147 
L 1259 2741 
L 2194 2741 
Q 2656 2741 2882 2914 
Q 3109 3088 3109 3444 
Q 3109 3797 2882 3972 
Q 2656 4147 2194 4147 
L 1259 4147 
z
M 628 4666 
L 2241 4666 
Q 2963 4666 3353 4366 
Q 3744 4066 3744 3513 
Q 3744 3084 3544 2831 
Q 3344 2578 2956 2516 
Q 3422 2416 3680 2098 
Q 3938 1781 3938 1306 
Q 3938 681 3513 340 
Q 3088 0 2303 0 
L 628 0 
L 628 4666 
z
" transform="scale(0.015625)"/>
     </defs>
     <use xlink:href="#DejaVuSans-42"/>
     <use xlink:href="#DejaVuSans-3a" x="68.603516"/>
     <use xlink:href="#DejaVuSans-31" x="102.294922"/>
    </g>
   </g>
   <g id="text_3">
    <!-- __init__ -->
    <g transform="translate(214.671563 35.472) scale(0.12 -0.12)">
     <defs>
      <path id="DejaVuSans-5f" d="M 3263 -1063 
L 3263 -1509 
L -63 -1509 
L -63 -1063 
L 3263 -1063 
z
" transform="scale(0.015625)"/>
      <path id="DejaVuSans-69" d="M 603 3500 
L 1178 3500 
L 1178 0 
L 603 0 
L 603 3500 
z
M 603 4863 
L 1178 4863 
L 1178 4134 
L 603 4134 
L 603 4863 
z
" transform="scale(0.015625)"/>
      <path id="DejaVuSans-6e" d="M 3513 2113 
L 3513 0 
L 2938 0 
L 2938 2094 
Q 2938 2591 2744 2837 
Q 2550 3084 2163 3084 
Q 1697 3084 1428 2787 
Q 1159 2491 1159 1978 
L 1159 0 
L 581 0 
L 581 3500 
L 1159 3500 
L 1159 2956 
Q 1366 3272 1645 3428 
Q 1925 3584 2291 3584 
Q 2894 3584 3203 3211 
Q 3513 2838 3513 2113 
z
" transform="scale(0.015625)"/>
      <path id="DejaVuSans-74" d="M 1172 4494 
L 1172 3500 
L 2356 3500 
L 2356 3053 
L 1172 3053 
L 1172 1153 
Q 1172 725 1289 603 
Q 1406 481 1766 481 
L 2356 481 
L 2356 0 
L 1766 0 
Q 1100 0 847 248 
Q 594 497 594 1153 
L 594 3053 
L 172 3053 
L 172 3500 
L 594 3500 
L 594 4494 
L 1172 4494 
z
" transform="scale(0.015625)"/>
     </defs>
     <use xlink:href="#DejaVuSans-5f"/>
     <use xlink:href="#DejaVuSans-5f" x="50"/>
     <use xlink:href="#DejaVuSans-69" x="100"/>
     <use xlink:href="#DejaVuSans-6e" x="127.783203"/>
     <use xlink:href="#DejaVuSans-69" x="191.162109"/>
     <use xlink:href="#DejaVuSans-74" x="218.945312"/>
     <use xlink:href="#DejaVuSans-5f" x="258.154297"/>
     <use xlink:href="#DejaVuSans-5f" x="308.154297"/>
    </g>
   </g>
   <g id="legend_1">
    <g id="patch_4">
     <path d="M 307.456625 78.82825 
L 362.216 78.82825 
Q 364.216 78.82825 364.216 76.82825 
L 364.216 48.472 
Q 364.216 46.472 362.216 46.472 
L 307.456625 46.472 
Q 305.456625 46.472 305.456625 48.472 
L 305.456625 76.82825 
Q 305.456625 78.82825 307.456625 78.82825 
z
" style="fill: #ffffff; opacity: 0.8; stroke: #cccccc; stroke-linejoin: miter"/>
    </g>
    <g id="patch_5">
     <path d="M 309.456625 58.070437 
L 329.456625 58.070437 
L 329.456625 51.070437 
L 309.456625 51.070437 
z
" style="fill: #90ee90"/>
    </g>
    <g id="text_4">
     <!-- A:19 -->
     <g transform="translate(337.456625 58.070437) scale(0.1 -0.1)">
      <use xlink:href="#DejaVuSans-41"/>
      <use xlink:href="#DejaVuSans-3a" x="66.658203"/>
      <use xlink:href="#DejaVuSans-31" x="100.349609"/>
      <use xlink:href="#DejaVuSans-39" x="163.972656"/>
     </g>
    </g>
    <g id="patch_6">
     <path d="M 309.456625 72.748562 
L 329.456625 72.748562 
L 329.456625 65.748562 
L 309.456625 65.748562 
z
" style="fill: #ffff00"/>
    </g>
    <g id="text_5">
     <!-- B:1 -->
     <g transform="translate(337.456625 72.748562) scale(0.1 -0.1)">
      <use xlink:href="#DejaVuSans-42"/>
      <use xlink:href="#DejaVuSans-3a" x="68.603516"/>
      <use xlink:href="#DejaVuSans-31" x="102.294922"/>
     </g>
    </g>
   </g>
  </g>
 </g>
</svg>
